<?xml version="1.0" encoding="utf-8"?>
<!-- Generator: Adobe Illustrator 25.0.1, SVG Export Plug-In . SVG Version: 6.00 Build 0)  -->
<svg version="1.1" id="Layer_1" xmlns="http://www.w3.org/2000/svg" xmlns:xlink="http://www.w3.org/1999/xlink" x="0px" y="0px"
	 viewBox="0 0 396.3 159.4" style="enable-background:new 0 0 396.3 159.4;" xml:space="preserve">
<style type="text/css">
	.st0{clip-path:url(#SVGID_2_);}
	.st1{clip-path:url(#SVGID_4_);}
	.st2{fill:#A7A9AC;}
	.st3{font-family:'GillSans-Bold';}
	.st4{font-size:10px;}
</style>
<g>
	<defs>
		<rect id="SVGID_1_" x="8.1" y="0.4" width="377.9" height="59.2"/>
	</defs>
	<clipPath id="SVGID_2_">
		<use xlink:href="#SVGID_1_"  style="overflow:visible;"/>
	</clipPath>
	<g class="st0">
		<g transform="translate(379.32) scale(0.24)">
			
				<image style="overflow:visible;enable-background:new    ;" width="3157" height="251" id="image" xlink:href="244C0080C582889A.png"  transform="matrix(0.24 0 0 0.24 7.8314 0)">
			</image>
		</g>
	</g>
</g>
<g>
	<defs>
		<rect id="SVGID_3_" x="8.5" y="82.3" width="377.9" height="59.2"/>
	</defs>
	<clipPath id="SVGID_4_">
		<use xlink:href="#SVGID_3_"  style="overflow:visible;"/>
	</clipPath>
	<g class="st1">
		<g transform="translate(0 81.4) scale(0.24)">
			
				<image style="overflow:visible;enable-background:new    ;" width="3157" height="251" id="image_2_" xlink:href="244C0080C582889E.png"  transform="matrix(0.24 0 0 0.24 -371.4886 81.4)">
			</image>
		</g>
	</g>
</g>
<text transform="matrix(1 0 0 1 17.2214 72.33)" class="st2 st3 st4">2003</text>
<text transform="matrix(1 0 0 1 65.0014 72.33)" class="st2 st3 st4">2004</text>
<text transform="matrix(1 0 0 1 112.7914 72.33)" class="st2 st3 st4">2005</text>
<text transform="matrix(1 0 0 1 160.5814 72.33)" class="st2 st3 st4">2006</text>
<text transform="matrix(1 0 0 1 208.3614 72.33)" class="st2 st3 st4">2007</text>
<text transform="matrix(1 0 0 1 256.1514 72.33)" class="st2 st3 st4">2008</text>
<text transform="matrix(1 0 0 1 303.9314 72.33)" class="st2 st3 st4">2009</text>
<text transform="matrix(1 0 0 1 351.7214 72.33)" class="st2 st3 st4">2010</text>
<text transform="matrix(1 0 0 1 17.0314 155.31)" class="st2 st3 st4">2011</text>
<text transform="matrix(1 0 0 1 64.8114 155.31)" class="st2 st3 st4">2012</text>
<text transform="matrix(1 0 0 1 112.6014 155.31)" class="st2 st3 st4">2013</text>
<text transform="matrix(1 0 0 1 160.3814 155.31)" class="st2 st3 st4">2014</text>
<text transform="matrix(1 0 0 1 208.1714 155.31)" class="st2 st3 st4">2015</text>
<text transform="matrix(1 0 0 1 255.9514 155.31)" class="st2 st3 st4">2016</text>
<text transform="matrix(1 0 0 1 303.7414 155.31)" class="st2 st3 st4">2017</text>
<text transform="matrix(1 0 0 1 351.5314 155.31)" class="st2 st3 st4">2018</text>
</svg>
